<svg width="310" height="200" viewBox="0 0 310 200" fill="none" xmlns="http://www.w3.org/2000/svg">
<rect width="310" height="200" fill="white" fill-opacity="0.01"/>
<path opacity="0.6" d="M2.45819 182.655H52.3818C55.0187 182.655 57.5216 183.678 59.3988 185.546L65.1644 191.283C67.0415 193.151 69.5444 194.174 72.1814 194.174H142.575C145.212 194.174 147.715 195.197 149.592 197.065C151.469 198.933 153.972 199.955 156.609 199.955H217.125C219.762 199.955 222.265 198.933 224.142 197.065L225.483 195.73C227.36 193.863 229.863 192.84 232.5 192.84H261.507C264.144 192.84 266.646 191.817 268.524 189.949L273.574 184.923C275.451 183.055 277.954 182.032 280.591 182.032H307.855C309.061 182.032 310 181.098 310 179.898C310 178.697 309.061 177.763 307.855 177.763H2.45819C1.11736 177.763 0 178.875 0 180.209C0 181.588 1.11736 182.655 2.45819 182.655Z" fill="url(#paint0_linear)"/>
<path opacity="0.6" d="M309.955 179.364C309.732 178.43 308.883 177.763 307.899 177.763H2.68164C2.77103 179.008 3.84369 179.987 5.13983 179.987H55.0634C57.7004 179.987 60.2033 181.01 62.0804 182.877L67.846 188.615C69.7232 190.483 72.226 191.505 74.863 191.505H145.257C147.894 191.505 150.396 192.528 152.274 194.396C154.151 196.264 156.654 197.287 159.291 197.287H219.807C222.444 197.287 224.947 196.264 226.824 194.396L228.165 193.062C230.042 191.194 232.545 190.171 235.182 190.171H264.188C266.825 190.171 269.328 189.148 271.205 187.28L273.574 184.923L276.256 182.255C278.133 180.387 280.636 179.364 283.273 179.364H309.955V179.364Z" fill="url(#paint1_linear)"/>
<path opacity="0.6" d="M309.955 179.364C309.732 178.43 308.883 177.763 307.899 177.763H2.68164C2.77103 179.008 3.84369 179.987 5.13983 179.987H55.0634C57.7004 179.987 60.2033 181.01 62.0804 182.877L67.846 188.615C69.7232 190.483 72.226 191.505 74.863 191.505H145.257C147.894 191.505 150.396 192.528 152.274 194.396C154.151 196.264 156.654 197.287 159.291 197.287H219.807C222.444 197.287 224.947 196.264 226.824 194.396L228.165 193.062C230.042 191.194 232.545 190.171 235.182 190.171H264.188C266.825 190.171 269.328 189.148 271.205 187.28L273.574 184.923L276.256 182.255C278.133 180.387 280.636 179.364 283.273 179.364H309.955V179.364Z" fill="url(#paint2_linear)"/>
<path opacity="0.6" d="M172.074 185.012H86.7075L121.346 55.5928H206.712L172.074 185.012Z" fill="url(#paint3_linear)"/>
<path opacity="0.6" d="M161.794 185.012H76.4277L111.066 55.5928H196.432L161.794 185.012Z" fill="url(#paint4_linear)"/>
<path opacity="0.6" d="M181.906 185.012H96.54L131.178 55.5928H216.544L181.906 185.012Z" fill="url(#paint5_linear)"/>
<path opacity="0.2" d="M152.542 64.0428C152.497 64.0428 152.408 64.0428 152.363 63.9984C152.006 63.9094 151.782 63.5536 151.872 63.1978L154.956 51.6346C155.045 51.2788 155.403 51.0564 155.76 51.1453C156.118 51.2343 156.341 51.5901 156.252 51.9459L153.168 63.5091C153.123 63.8649 152.855 64.0428 152.542 64.0428Z" fill="#008DA6"/>
<path opacity="0.2" d="M138.866 80.0534C138.821 80.0534 138.732 80.0534 138.687 80.009C138.33 79.92 138.106 79.5642 138.195 79.2084L144.989 53.8582C145.078 53.5024 145.436 53.28 145.794 53.369C146.151 53.4579 146.375 53.8137 146.285 54.1695L139.492 79.5197C139.447 79.8755 139.179 80.0534 138.866 80.0534Z" fill="#008DA6"/>
<path opacity="0.2" d="M188.7 67.6007C188.655 67.6007 188.566 67.6007 188.521 67.5562C188.164 67.4673 187.94 67.1115 188.029 66.7557L191.113 55.1924C191.203 54.8366 191.56 54.6143 191.918 54.7032C192.275 54.7922 192.499 55.1479 192.41 55.5037L189.326 67.067C189.236 67.4228 188.968 67.6007 188.7 67.6007Z" fill="#008DA6"/>
<path opacity="0.2" d="M120.318 119.635C120.273 119.635 120.183 119.635 120.139 119.591C119.781 119.502 119.558 119.146 119.647 118.79L122.731 107.227C122.82 106.871 123.178 106.649 123.536 106.738C123.893 106.827 124.117 107.183 124.027 107.538L120.943 119.102C120.899 119.457 120.63 119.635 120.318 119.635Z" fill="#008DA6"/>
<path opacity="0.2" d="M122.999 85.1679C122.955 85.1679 122.865 85.1679 122.82 85.1235C122.463 85.0345 122.239 84.6787 122.329 84.3229L129.122 58.9727C129.212 58.6169 129.569 58.3945 129.927 58.4835C130.284 58.5724 130.508 58.9282 130.418 59.284L123.625 84.6342C123.536 84.99 123.267 85.1679 122.999 85.1679Z" fill="#008DA6"/>
<path opacity="0.2" d="M125.279 102.735C125.234 102.735 125.144 102.735 125.1 102.691C124.742 102.602 124.519 102.246 124.608 101.89L131.402 76.5401C131.491 76.1843 131.849 75.9619 132.206 76.0509C132.564 76.1398 132.787 76.4956 132.698 76.8514L125.904 102.202C125.86 102.557 125.591 102.735 125.279 102.735Z" fill="#008DA6"/>
<path opacity="0.2" d="M138.821 115.633C138.776 115.633 138.687 115.633 138.642 115.588C138.285 115.499 138.061 115.144 138.151 114.788L144.944 89.4375C145.033 89.0817 145.391 88.8594 145.749 88.9483C146.106 89.0373 146.33 89.3931 146.24 89.7489L139.447 115.099C139.402 115.455 139.134 115.633 138.821 115.633Z" fill="#008DA6"/>
<path opacity="0.2" d="M154.017 133.467C153.973 133.467 153.883 133.467 153.838 133.422C153.481 133.333 153.257 132.978 153.347 132.622L160.14 107.272C160.23 106.916 160.587 106.693 160.945 106.782C161.302 106.871 161.526 107.227 161.437 107.583L154.643 132.933C154.598 133.244 154.33 133.467 154.017 133.467Z" fill="#008DA6"/>
<path opacity="0.2" d="M147.715 82.1437C147.67 82.1437 147.581 82.1437 147.536 82.0992C147.179 82.0102 146.955 81.6544 147.045 81.2987L150.129 69.7354C150.218 69.3796 150.575 69.1572 150.933 69.2462C151.291 69.3351 151.514 69.6909 151.425 70.0467L148.341 81.61C148.251 81.9658 147.983 82.1437 147.715 82.1437Z" fill="#008DA6"/>
<path opacity="0.2" d="M132.161 140.538C132.117 140.538 132.027 140.538 131.983 140.494C131.625 140.405 131.402 140.049 131.491 139.693L134.575 128.13C134.664 127.774 135.022 127.552 135.379 127.641C135.737 127.73 135.96 128.085 135.871 128.441L132.787 140.004C132.742 140.36 132.474 140.538 132.161 140.538Z" fill="#008DA6"/>
<path d="M245.551 55.5926H139.759C143.29 55.5926 146.151 52.7463 146.151 49.2328C146.151 45.7194 149.011 42.873 152.542 42.873C153.168 42.873 153.793 42.962 154.374 43.1399C154.374 43.0509 154.374 42.962 154.374 42.873C154.374 35.8461 160.095 30.1534 167.157 30.1534C167.917 30.1534 168.677 30.2424 169.436 30.3313C170.688 18.9904 180.342 10.1846 192.096 10.1846C204.119 10.1846 213.997 19.4797 214.846 31.2653C216.455 30.5537 218.198 30.1534 220.075 30.1534C227.137 30.1534 232.858 35.8461 232.858 42.873C232.858 49.8999 238.489 55.5926 245.551 55.5926Z" fill="#344563"/>
<path d="M182.04 182.655L129.346 130.265H90.9979L38.3032 182.655H182.04Z" fill="#C1C7D0"/>
<path d="M111.959 135.557L110.931 136.58L157.279 182.655H159.29L111.959 135.557Z" fill="#A5ADBA"/>
<path d="M105.255 142.228L104.227 143.251L143.871 182.655H145.927L105.255 142.228Z" fill="#A5ADBA"/>
<path d="M98.5511 148.855L97.5679 149.878L130.508 182.655H132.564L98.5511 148.855Z" fill="#A5ADBA"/>
<path d="M91.8917 155.526L90.8638 156.549L117.099 182.655H119.155L91.8917 155.526Z" fill="#A5ADBA"/>
<path d="M85.1876 162.197L84.1597 163.22L103.736 182.655H105.792L85.1876 162.197Z" fill="#A5ADBA"/>
<path d="M78.483 168.868L77.4551 169.847L90.3271 182.655H92.383L78.483 168.868Z" fill="#A5ADBA"/>
<path d="M71.7792 175.495L70.7959 176.518L76.9637 182.655H79.0197L71.7792 175.495Z" fill="#A5ADBA"/>
<path d="M65.611 182.655L65.1193 182.166L64.583 182.655H65.611Z" fill="#A5ADBA"/>
<path d="M170.866 44.8298L163.179 74.0938L160.274 69.8688L176.051 70.0022L180.654 70.0466L178.911 73.9159L166.129 102.29L173.191 72.048L176.051 75.9617L160.274 76.0951L155.179 76.1396L157.324 71.8701L170.866 44.8298Z" fill="white"/>
<path d="M99.0874 182.655L186.018 96.1975L272.948 182.655H99.0874Z" fill="url(#paint6_linear)"/>
<path d="M186.107 119.349L185.096 120.355L247.67 182.622L248.682 181.615L186.107 119.349Z" fill="#C1C7D0"/>
<path d="M179.403 125.995L178.375 127.018L234.332 182.655H236.344L179.403 125.995Z" fill="#C1C7D0"/>
<path d="M172.743 132.666L171.715 133.689L220.924 182.655H222.98L172.743 132.666Z" fill="#C1C7D0"/>
<path d="M166.04 139.337L165.012 140.36L207.561 182.655H209.572L166.04 139.337Z" fill="#C1C7D0"/>
<path d="M159.336 146.009L158.308 146.987L194.152 182.655H196.208L159.336 146.009Z" fill="#C1C7D0"/>
<path d="M152.631 152.635L151.648 153.658L180.789 182.655H182.845L152.631 152.635Z" fill="#C1C7D0"/>
<path d="M145.972 159.306L144.944 160.329L167.38 182.655H169.436L145.972 159.306Z" fill="#C1C7D0"/>
<path d="M139.267 165.977L138.239 167L154.016 182.655H156.072L139.267 165.977Z" fill="#C1C7D0"/>
<path d="M110.171 149.211L129.345 130.131H90.9976L110.171 149.211Z" fill="url(#paint7_linear)"/>
<path d="M200.544 40.0267C200.544 48.6102 207.561 55.5926 216.187 55.5926H86.5732C90.9086 55.5926 94.3948 52.1236 94.3948 47.8096C94.3948 43.4957 97.8809 40.0267 102.216 40.0267C102.976 40.0267 103.736 40.1156 104.451 40.338C104.451 40.249 104.451 40.1156 104.451 40.0267C104.451 31.4432 111.468 24.4607 120.094 24.4607C121.033 24.4607 121.971 24.5497 122.865 24.6831C124.429 10.8072 136.273 0 150.665 0C165.414 0 177.526 11.3854 178.51 25.8394C180.476 24.95 182.621 24.4607 184.901 24.4607C193.572 24.4607 200.544 31.4432 200.544 40.0267Z" fill="url(#paint8_linear)"/>
<path opacity="0.6" d="M150.933 34.4674C149.592 34.4674 148.475 33.4 148.385 32.0658L147.581 19.1238C147.447 17.2115 149.011 15.5659 150.933 15.5659C152.855 15.5659 154.374 17.167 154.285 19.1238L153.48 32.1103C153.436 33.4445 152.318 34.4674 150.933 34.4674Z" fill="#B3BAC5"/>
<path opacity="0.6" d="M151.156 43.1399C152.786 43.1399 154.106 41.8257 154.106 40.2046C154.106 38.5835 152.786 37.2693 151.156 37.2693C149.527 37.2693 148.207 38.5835 148.207 40.2046C148.207 41.8257 149.527 43.1399 151.156 43.1399Z" fill="#B3BAC5"/>
<path opacity="0.15" d="M110.261 148.988L93.724 164.554L76.4272 144.763L91.0423 130.309L110.261 148.988Z" fill="url(#paint9_linear)"/>
<path d="M143.469 179.275H128.496C127.066 179.275 125.949 180.431 125.949 181.81V182.655H146.061V181.81C146.017 180.431 144.899 179.275 143.469 179.275Z" fill="#FF991F"/>
<path d="M137.346 157.394H134.575C133.904 157.394 133.323 157.883 133.189 158.595L129.479 179.987H142.486L138.776 158.595C138.597 157.883 138.016 157.394 137.346 157.394Z" fill="#FF991F"/>
<path d="M132.161 164.554H139.759L139.268 161.619H132.653L132.161 164.554Z" fill="#FFC400"/>
<path d="M141.86 176.473L141.368 173.582H130.597L130.061 176.473H141.86Z" fill="#FFC400"/>
<path d="M290.513 179.275H275.541C274.111 179.275 272.993 180.431 272.993 181.81V182.655H293.106V181.81C293.061 180.431 291.944 179.275 290.513 179.275Z" fill="#FF991F"/>
<path d="M284.39 157.394H281.619C280.949 157.394 280.368 157.883 280.234 158.595L276.524 179.987H289.53L285.82 158.595C285.642 157.883 285.061 157.394 284.39 157.394Z" fill="#FF991F"/>
<path d="M279.206 164.554H286.848L286.312 161.619H279.742L279.206 164.554Z" fill="#FFC400"/>
<path d="M288.904 176.473L288.413 173.582H277.641L277.105 176.473H288.904Z" fill="#FFC400"/>
<defs>
<linearGradient id="paint0_linear" x1="0" y1="188.881" x2="310.009" y2="188.881" gradientUnits="userSpaceOnUse">
<stop stop-color="#79E2F2" stop-opacity="0"/>
<stop offset="1" stop-color="#79E2F2"/>
</linearGradient>
<linearGradient id="paint1_linear" x1="2.69272" y1="187.547" x2="312.702" y2="187.547" gradientUnits="userSpaceOnUse">
<stop stop-color="#79E2F2" stop-opacity="0"/>
<stop offset="1" stop-color="#79E2F2"/>
</linearGradient>
<linearGradient id="paint2_linear" x1="2.69272" y1="187.547" x2="312.702" y2="187.547" gradientUnits="userSpaceOnUse">
<stop stop-color="#79E2F2" stop-opacity="0"/>
<stop offset="1" stop-color="#79E2F2"/>
</linearGradient>
<linearGradient id="paint3_linear" x1="129.38" y1="185.012" x2="129.38" y2="55.5928" gradientUnits="userSpaceOnUse">
<stop offset="0.2586" stop-color="#79E2F2" stop-opacity="0"/>
<stop offset="1" stop-color="#79E2F2"/>
</linearGradient>
<linearGradient id="paint4_linear" x1="119.1" y1="185.012" x2="119.1" y2="55.5928" gradientUnits="userSpaceOnUse">
<stop offset="0.3119" stop-color="#79E2F2" stop-opacity="0"/>
<stop offset="0.9445" stop-color="#79E2F2" stop-opacity="0.9194"/>
<stop offset="1" stop-color="#79E2F2"/>
</linearGradient>
<linearGradient id="paint5_linear" x1="139.212" y1="185.012" x2="139.212" y2="55.5928" gradientUnits="userSpaceOnUse">
<stop offset="0.5028" stop-color="#79E2F2" stop-opacity="0"/>
<stop offset="0.9599" stop-color="#79E2F2" stop-opacity="0.9194"/>
<stop offset="1" stop-color="#79E2F2"/>
</linearGradient>
<linearGradient id="paint6_linear" x1="186.033" y1="182.677" x2="186.033" y2="96.1762" gradientUnits="userSpaceOnUse">
<stop offset="0.126" stop-color="#DFE1E5"/>
<stop offset="0.7465" stop-color="#FAFBFC"/>
</linearGradient>
<linearGradient id="paint7_linear" x1="100.587" y1="139.663" x2="119.67" y2="120.486" gradientUnits="userSpaceOnUse">
<stop stop-color="#DFE1E5"/>
<stop offset="0.3584" stop-color="#E7E9EC"/>
<stop offset="0.8323" stop-color="#FAFBFC"/>
</linearGradient>
<linearGradient id="paint8_linear" x1="117.929" y1="86.7801" x2="185.64" y2="18.7337" gradientUnits="userSpaceOnUse">
<stop offset="0.5431" stop-color="#5E6C84"/>
<stop offset="0.7013" stop-color="#606E86"/>
<stop offset="0.7881" stop-color="#68768C"/>
<stop offset="0.8576" stop-color="#768296"/>
<stop offset="0.9178" stop-color="#8A94A5"/>
<stop offset="0.9716" stop-color="#A2ABB8"/>
<stop offset="1" stop-color="#B3BAC5"/>
</linearGradient>
<linearGradient id="paint9_linear" x1="84.7586" y1="157.057" x2="100.505" y2="138.199" gradientUnits="userSpaceOnUse">
<stop offset="0.2586" stop-color="#091E42" stop-opacity="0"/>
<stop offset="1" stop-color="#091E42"/>
</linearGradient>
</defs>
</svg>
