<svg width="235" height="166" viewBox="0 0 235 166" fill="none" xmlns="http://www.w3.org/2000/svg">
<g clip-path="url(#clip0)">
<rect width="235" height="166" fill="white" fill-opacity="0.01"/>
<path opacity="0.3" d="M185.832 0.0780227L193.473 5.69051L200.653 0.0780227C200.653 0.0780227 196.223 -0.431785 193.242 2.65462C190.262 -0.693579 185.832 0.0780227 185.832 0.0780227Z" fill="#00C7E5"/>
<path opacity="0.3" d="M166.371 7.31187L174.011 12.9244L181.192 7.31187C181.192 7.31187 176.761 6.80207 173.781 9.88847C170.801 6.53568 166.371 7.31187 166.371 7.31187Z" fill="#00C7E5"/>
<path d="M122.523 1.12064C122.838 1.658 122.543 2.31019 121.893 2.52605L118.688 3.58701C118.428 3.67427 118.073 3.47218 117.878 3.1415C117.687 2.81081 117.707 2.44797 117.943 2.31478L120.838 0.721057C121.428 0.394963 122.208 0.583271 122.523 1.12064Z" fill="#172B4D"/>
<path d="M120.338 2.90267C120.719 2.90267 121.028 2.65797 121.028 2.35612C121.028 2.05427 120.719 1.80957 120.338 1.80957C119.957 1.80957 119.648 2.05427 119.648 2.35612C119.648 2.65797 119.957 2.90267 120.338 2.90267Z" fill="#253858"/>
<path d="M120.593 3.4217C120.893 3.75238 121.298 3.88098 121.398 3.91313C121.918 4.07388 123.543 4.58369 123.813 4.18411C123.943 3.99581 123.703 3.6743 123.553 3.53193C123.268 3.25635 122.723 3.44007 122.338 3.19205C122.253 3.13694 122.208 3.10938 122.113 3.05427C121.883 2.92107 121.763 2.85677 121.708 2.88433C121.593 2.93945 121.743 3.19665 121.618 3.30688C121.393 3.50437 120.548 3.00375 120.438 3.13235C120.388 3.19205 120.543 3.36199 120.593 3.4217Z" fill="#D4B696"/>
<path d="M120.197 2.99447C120.578 2.99447 120.887 2.74977 120.887 2.44792C120.887 2.14607 120.578 1.90137 120.197 1.90137C119.816 1.90137 119.507 2.14607 119.507 2.44792C119.507 2.74977 119.816 2.99447 120.197 2.99447Z" fill="#344563"/>
<path d="M124.113 1.41457C124.428 1.95193 124.133 2.60412 123.483 2.81998L120.278 3.88094C120.018 3.9682 119.663 3.76612 119.468 3.43543C119.278 3.10474 119.298 2.74191 119.533 2.60871L122.428 1.01499C123.018 0.693488 123.798 0.881795 124.113 1.41457Z" fill="#42526E"/>
<path d="M125.203 3.22878C125.208 3.76615 124.268 4.34485 123.403 4.30351C122.648 4.26677 122.158 3.75696 122.063 3.65592C121.708 3.2839 121.838 3.11855 121.538 2.65467C120.928 1.70854 119.763 1.45594 119.863 1.19414C119.888 1.12984 119.988 1.06095 120.343 1.03798C120.338 0.98287 120.343 0.900198 120.408 0.849677C120.543 0.744041 120.853 0.863455 120.993 0.91857C122.463 1.49727 123.198 1.78662 123.608 2.02545C124.673 2.65008 125.198 2.96699 125.203 3.22878Z" fill="#D4B696"/>
<path d="M122.313 1.01953C122.693 1.1711 122.853 1.34562 123.253 1.67631C124.318 2.56273 125.148 2.96691 125.088 3.04958C125.053 3.09551 124.758 2.98987 124.598 2.92557C123.308 2.42954 120.768 1.22621 120.948 0.886338C121.038 0.720994 121.778 0.803666 122.313 1.01953Z" fill="#D4B696"/>
<path d="M56.6387 104.58L60.3489 166L224.794 23.7039L56.6387 104.58Z" fill="#A5ADBA"/>
<path opacity="0.3" d="M158.93 101.594C162.82 96.4456 166.315 95.1826 168.746 94.953C175.011 94.3559 178.281 100.23 186.567 99.6009C190.222 99.3254 190.817 98.0853 193.437 98.7007C198.087 99.7892 198.262 104.157 203.053 105.801C206.693 107.051 207.443 104.818 212.328 105.484C218.124 106.274 219.329 109.728 226.239 112.112C229.854 113.357 233.055 113.632 235 113.687C201.788 113.687 168.571 113.687 135.358 113.687C135.873 112.691 136.773 111.382 138.354 110.688C140.484 109.751 141.874 110.812 143.779 110.054C146.229 109.081 145.979 106.518 147.824 104.437C149.224 102.862 152.139 101.222 158.93 101.594Z" fill="#00C7E5"/>
<path opacity="0.3" d="M68.6393 36.968C65.7241 33.1054 63.099 32.1592 61.2738 31.9847C56.5735 31.5392 54.1184 35.9438 47.908 35.4707C45.1628 35.264 44.7228 34.3363 42.7527 34.7955C39.2674 35.6131 39.1324 38.8878 35.5372 40.1187C32.807 41.0556 32.247 39.3838 28.5818 39.8798C24.2315 40.4723 23.3314 43.0627 18.1461 44.8493C15.4309 45.7863 13.0308 45.9884 11.5757 46.0343C36.4873 46.0343 61.4039 46.0343 86.3154 46.0343C85.9304 45.2857 85.2554 44.3028 84.0703 43.7838C82.4702 43.0811 81.4301 43.8756 80 43.3107C78.1649 42.5805 78.3499 40.656 76.9649 39.0991C75.9198 37.9187 73.7396 36.6924 68.6393 36.968Z" fill="#00C7E5"/>
<path d="M67.9441 109.131L60.3486 166L224.794 23.7039L67.9441 109.131Z" fill="#CFD4DB"/>
<path d="M79.6152 149.328L81.3303 147.844L87.8158 98.3058L86.1857 99.1968L79.6152 149.328Z" fill="#3DC7DC"/>
<path d="M111.582 85.363L109.947 86.2541L104.507 127.787L106.222 126.304L111.582 85.363Z" fill="#3DC7DC"/>
<path d="M150.285 142.108L0 81.5831L224.769 23.667L150.285 142.108Z" fill="#F0F2F5"/>
<path d="M159.79 126.993L160.36 126.083L27.2267 74.5697L25.4766 75.0198L159.79 126.993Z" fill="#9CE3EE"/>
<path d="M62.7588 65.4116L61.0137 65.8617L171.376 108.566L171.946 107.661L62.7588 65.4116Z" fill="#9CE3EE"/>
<path d="M98.2964 56.2533L96.5513 56.7034L182.962 90.1441L183.532 89.2347L98.2964 56.2533Z" fill="#9CE3EE"/>
<path d="M133.834 47.0999L132.083 47.55L194.547 71.7176L195.118 70.8128L133.834 47.0999Z" fill="#9CE3EE"/>
<path d="M169.366 37.9417L167.621 38.3917L206.133 53.2956L206.703 52.3862L169.366 37.9417Z" fill="#9CE3EE"/>
<path d="M204.903 28.7834L203.158 29.2335L217.724 34.869L218.289 33.9642L204.903 28.7834Z" fill="#9CE3EE"/>
<path d="M24.3566 91.3935L104.677 54.6093L96.9513 56.6026L22.5615 90.6724L24.3566 91.3935Z" fill="#FF8A63"/>
<path d="M148.604 90.8791C139.114 92.9137 126.778 89.8962 125.233 84.5133C123.138 77.2291 141.114 66.739 153.21 61.8659C166.185 56.6346 184.802 53.19 187.232 57.8104C188.482 60.1849 181.321 66.3348 167.061 78.6023C155.71 88.3668 152.57 90.0248 148.604 90.8791Z" fill="url(#paint0_linear)"/>
<path d="M81.3401 82.1112C80.075 80.5589 78.1899 78.2395 78.3699 75.6031C79.125 64.6905 114.512 60.1436 117.427 60.0333C120.548 59.9185 123.513 60.2584 123.513 60.2584C126.283 60.5477 128.788 60.8141 131.668 62.0404C134.683 63.3264 136.829 64.2404 137.049 65.5999C137.629 69.1318 124.378 70.3994 108.562 80.3797C101.356 84.9267 98.1762 88.4035 92.3958 88.0452C88.4906 87.8018 84.1353 85.5467 81.3401 82.1112Z" fill="url(#paint1_linear)"/>
<path d="M224.789 23.7039L67.9444 109.131L56.6387 104.58L224.789 23.7039Z" fill="#A5ADBA"/>
<path d="M76.7202 104.35L78.2303 103.528V94.1951L76.7202 94.9207V104.35Z" fill="#008DA6"/>
<path d="M104.517 81.551L103.012 82.2767V90.0341L104.517 89.2119V81.551Z" fill="#008DA6"/>
<path d="M131.183 68.7277L129.678 69.4533V75.5067L131.183 74.6892V68.7277Z" fill="#008DA6"/>
<path d="M184.162 43.2465L182.657 43.9721V46.6544L184.162 45.8322V43.2465Z" fill="#008DA6"/>
<path d="M140.704 72.5674C140.624 72.8383 140.504 73.1277 140.239 73.2655C140.069 73.3527 139.869 73.3665 139.679 73.3803C139.244 73.4079 138.804 73.4308 138.369 73.4079C137.884 73.3849 137.404 73.3022 136.919 73.3206C136.654 73.3298 136.394 73.3757 136.134 73.4171C135.779 73.4768 135.419 73.5457 135.079 73.6605C134.588 73.8304 134.133 74.106 133.613 74.1519C133.518 74.1611 133.403 74.1519 133.343 74.083C133.268 73.9912 133.338 73.858 133.408 73.7615C133.543 73.5778 133.683 73.3895 133.818 73.2058C133.598 73.316 133.358 73.3941 133.108 73.4262C133.123 73.1507 133.273 72.8935 133.473 72.6914C133.673 72.4893 133.923 72.3285 134.168 72.1724C134.018 72.2321 133.858 72.2734 133.693 72.2918C133.628 72.301 133.548 72.2964 133.508 72.2505C133.453 72.1862 133.508 72.0897 133.573 72.03C133.718 71.8876 133.898 71.7728 134.073 71.658C134.298 71.5156 134.518 71.3686 134.744 71.2262C134.969 71.0839 135.194 70.9369 135.449 70.8496C135.764 70.744 136.104 70.7348 136.444 70.7302C137.619 70.721 138.824 70.7945 139.889 71.2492C140.054 71.3181 140.214 71.4008 140.379 71.4697C140.504 71.5248 140.739 71.5661 140.829 71.6672C140.999 71.8463 140.764 72.3699 140.704 72.5674Z" fill="#72594B"/>
<path d="M111.227 22.9506C111.437 22.5602 111.632 22.2433 111.767 22.032C111.987 22.0871 112.347 22.1652 112.797 22.2341C113.182 22.2938 113.482 22.3167 113.642 22.3351C114.552 22.4362 116.292 22.5969 120.978 22.8771C121.203 23.0975 121.518 23.4236 121.858 23.8416C123.078 25.348 123.528 26.7259 123.713 27.323C125.598 33.3718 125.963 35.2732 125.963 35.2732C127.723 43.1132 128.603 47.0355 128.928 47.6923C129.488 48.8176 131.018 51.6284 129.853 54.1775C129.783 54.329 129.718 54.4484 129.673 54.5265C129.633 54.5495 129.573 54.5816 129.498 54.623C128.958 54.9215 128.323 55.2706 127.638 55.4405C127.303 55.5232 126.778 55.6104 126.093 55.5415C125.948 55.4221 125.708 55.1925 125.498 54.8618C124.868 53.856 125.098 52.7353 125.143 52.4597C125.353 51.1691 124.633 49.5433 119.532 39.0623C119.327 38.6444 119.002 37.9692 118.547 37.0782C117.797 35.5993 117.027 34.1709 116.252 32.7977C116.422 34.5246 116.602 36.0999 116.772 37.5008C117.087 40.0774 117.222 40.7525 117.337 42.3095C117.552 45.2397 117.222 44.7621 117.437 47.0218C117.712 49.8923 118.337 51.6514 117.192 53.5207C117.072 53.7182 116.957 53.8697 116.882 53.9754C116.822 54.0305 115.847 54.8526 114.607 54.5495C113.807 54.352 113.377 53.8008 113.262 53.6447C113.062 53.4059 112.762 52.9971 112.597 52.4368C112.367 51.6514 112.522 50.9854 112.582 50.7098C112.997 48.7579 112.702 46.5074 112.167 42.4748C111.552 37.4365 111.242 34.9196 110.912 33.6198C110.302 31.2223 109.322 29.0269 109.932 26.1472C110.242 24.7372 110.807 23.6395 111.227 22.9506Z" fill="url(#paint2_linear)"/>
<path d="M129.858 54.1775C129.578 54.4668 128.943 55.0409 127.923 55.3533C127.163 55.5875 126.498 55.5783 126.098 55.5462C126.488 57.1307 126.868 58.3937 127.138 59.2572C127.723 61.1035 128.233 62.3758 128.378 64.3415C128.408 64.764 128.413 65.1131 128.413 65.3427L130.388 65.3336C130.498 65.2187 130.608 65.1085 130.718 64.9937C130.893 65.0993 131.068 65.205 131.243 65.3152H136.259C136.574 65.3152 136.794 65.035 136.699 64.7595L134.699 64.1808C132.619 63.5791 131.108 61.9211 130.818 59.9369C130.628 58.6096 130.403 57.1445 130.218 56.0927C130.103 55.4405 129.983 54.8067 129.858 54.1775Z" fill="#344563"/>
<path d="M113.447 53.8147C114.593 53.8698 115.738 53.9203 116.883 53.9754C116.633 55.3625 116.428 56.6118 116.263 57.7003C116.103 58.7566 115.988 59.5971 116.493 59.9324C116.773 60.1207 117.148 60.0886 117.423 60.0334C117.748 60.0702 117.908 60.4192 117.708 60.6581L116.263 62.3712C116.263 62.3712 115.668 63.276 115.363 63.4735C115.053 63.6756 114.788 63.7031 114.718 63.7123C114.537 63.7307 114.187 63.7904 113.832 63.6067C113.552 63.4643 113.417 63.2438 113.357 63.129C113.457 61.8476 113.487 60.805 113.492 60.1115C113.507 58.7291 113.452 57.9988 113.437 55.9596C113.437 55.0318 113.442 54.2786 113.447 53.8147Z" fill="#344563"/>
<path d="M120.928 9.17652C118.147 9.45209 115.907 9.05251 113.377 8.60241C111.992 8.35439 110.992 8.0926 110.047 7.76651C108.637 7.27966 107.527 6.71474 106.742 6.26005C107.577 6.13145 108.557 5.92018 109.627 5.56193C110.397 5.30473 111.072 5.01538 111.652 4.73062C111.602 4.62499 111.557 4.50098 111.527 4.36319C111.397 3.80746 111.557 3.3298 111.672 3.0726C110.992 3.12771 110.152 3.22876 109.192 3.41706C108.712 3.51351 107.757 3.70182 106.617 4.08762C105.807 4.3586 104.742 4.78574 103.561 5.4517C103.191 5.66298 103.066 6.10848 103.281 6.45295C103.601 6.96276 103.917 7.38071 104.182 7.70221C105.162 8.89176 106.197 9.63581 108.267 11.1147C108.697 11.4224 109.322 11.8588 110.217 12.2951C110.607 12.4834 110.937 12.6212 111.167 12.713C111.557 13.7418 111.927 15.0462 112.072 16.5756C112.317 19.1201 111.852 21.2328 111.392 22.6382C112.137 23.1067 113.427 23.7818 115.192 24.0712C118.582 24.6177 121.258 23.3317 122.013 22.9367C120.733 21.6094 120.513 20.576 120.618 19.8687C120.853 18.2704 122.428 17.632 122.663 15.8408C122.803 14.789 122.388 13.875 122.003 13.2504C122.238 13.1999 122.503 13.1356 122.788 13.0667C122.788 13.0667 122.943 13.0253 123.093 12.9886C126.118 12.1848 128.413 10.6922 128.413 10.6922C130.183 9.53936 131.418 8.2212 132.233 7.15566C132.548 6.74689 132.428 6.18656 131.973 5.91558C131.133 5.41496 130.193 4.90515 129.158 4.40912C127.508 3.62374 125.958 3.04045 124.583 2.60413C124.193 3.16905 123.798 3.73397 123.408 4.2943C125.078 5.13939 126.748 5.98448 128.418 6.83416C125.308 8.53811 122.538 9.01577 120.928 9.17652Z" fill="#0065FF"/>
<path d="M117.902 2.56738C117.832 2.61331 117.717 2.66843 117.537 2.7465C117.052 2.95778 116.752 3.15527 116.577 3.35276C116.127 3.85339 116.697 4.45505 116.522 5.5803C116.502 5.69512 116.447 6.02122 116.492 6.45754C116.517 6.678 116.557 6.83416 116.567 6.8709C116.647 7.20159 116.622 7.92726 116.242 9.58528C116.402 9.49802 116.562 9.41075 116.722 9.32349C117.182 9.01117 117.637 8.70345 118.097 8.39114C118.997 7.43582 119.212 7.26589 119.072 6.78363C118.902 6.20493 118.607 5.1945 118.627 5.14857C118.892 4.73981 119.332 4.56069 118.862 4.26215C118.592 4.09221 118.392 3.9728 118.322 3.94065C118.112 3.83501 117.897 3.5227 117.902 2.56738Z" fill="#D4B696"/>
<path d="M154.795 50.8614C154.115 50.4113 153.285 50.4756 153.05 50.5078C151.97 50.6547 151.395 51.3988 151.295 51.532C150.22 53.0706 149.14 54.623 148.059 56.1799C147.059 57.6221 146.074 59.0597 145.089 60.4972C142.729 64.0659 140.369 67.63 138.009 71.1986C138.364 71.4329 138.919 71.7406 139.659 71.9381C140.189 72.0804 140.659 72.1218 141.024 72.131C143.034 69.7197 145.049 67.3085 147.059 64.8972C148.019 63.7444 148.984 62.5457 149.95 61.301C151.93 58.7428 153.715 56.2351 155.325 53.81C156.065 52.8547 155.825 51.5366 154.795 50.8614Z" fill="url(#paint3_linear)"/>
<path d="M116.613 3.31147C117.123 4.61584 117.728 6.73315 117.508 9.33272C117.503 9.40161 117.498 9.46591 117.488 9.53021C117.228 12.1619 114.448 14.0128 111.677 13.301C111.582 13.278 111.487 13.2504 111.392 13.2183C111.377 13.2137 111.357 13.2091 111.342 13.2045C109.617 12.6625 108.852 10.8208 109.672 9.32353C110.222 8.3131 110.512 7.41749 110.677 6.67804C111.177 4.40916 110.602 3.04508 111.832 1.89227C112.767 1.01503 114.223 0.748648 114.708 0.661384C115.638 0.491447 116.133 0.601676 116.373 0.688941C116.943 0.89562 117.313 1.20793 117.493 1.38246C117.923 1.79123 118.128 2.22296 118.223 2.47557C118.018 2.53987 117.788 2.62713 117.548 2.74195C117.158 2.92567 116.848 3.12775 116.613 3.31147Z" fill="#172B4D"/>
<path d="M120.188 3.68116C120.353 3.5983 120.365 3.32732 120.215 3.07591C120.065 2.82451 119.81 2.68788 119.645 2.77074C119.481 2.8536 119.469 3.12458 119.619 3.37599C119.769 3.62739 120.024 3.76402 120.188 3.68116Z" fill="#253858"/>
<path d="M176.451 57.4798C177.661 57.4568 179.671 57.0664 180.301 57.0251C180.771 56.9929 181.436 57.296 182.232 57.0113C182.617 56.0881 182.262 55.3027 182.337 54.7332C182.337 54.7332 182.757 52.4643 182.707 51.3115C182.692 50.9487 182.367 50.6639 181.972 50.6639C181.647 50.6639 181.356 50.8614 181.266 51.1462L180.836 52.4781C180.641 53.0798 179.816 53.8284 179.181 53.5988C178.236 53.2497 177.151 52.4689 176.201 52.1199C176.486 52.6802 177.121 53.6355 177.186 54.8618C177.211 55.4267 176.041 57.0618 176.451 57.4798Z" fill="#505F79"/>
<path d="M185.142 55.1602C185.237 55.3256 185.957 56.6529 185.287 57.5485C184.992 57.9435 184.492 58.1639 183.407 58.3109C180.842 58.66 178.727 58.0813 178.112 57.9022C175.402 57.1168 174.041 56.7218 173.531 55.4909C172.986 54.1819 173.621 52.4366 175.006 51.4584C176.322 50.5306 178.137 50.4066 179.627 51.1552C181.467 52.4872 183.307 53.8237 185.142 55.1602Z" fill="#FF7452"/>
<path d="M171.381 51.656C170.561 50.6869 168.726 50.7328 167.281 51.7616C166.786 52.1153 166.406 52.5424 166.146 52.9833L166.111 52.9558L157.025 61.9532L162.026 66.2108L170.101 58.2146C170.241 58.3018 170.391 58.3983 170.521 58.4764C172.586 59.7302 173.656 60.1114 175.062 59.8634C176.072 59.6843 176.927 59.2342 177.487 58.8851L171.381 51.656Z" fill="#DE350B"/>
<path d="M160.925 46.8197C161.06 47.2422 160.6 47.55 160.575 48.5145C160.555 49.1712 160.75 49.7224 160.925 50.0944C158.15 51.0727 155.795 51.1554 155.19 50.2781C154.935 49.9061 154.96 49.3182 154.99 48.5788C155.025 47.752 155.05 47.0769 155.43 46.59C156.55 45.1387 160.57 45.6944 160.925 46.8197Z" fill="#72594B"/>
<path d="M159.54 39.9258C160.35 40.656 161.215 42.1028 161.58 42.856C161.635 42.9892 161.645 43.0535 161.945 43.2005C162.24 43.3475 162.64 43.4072 162.565 43.6093C162.49 43.8113 162.05 44.0777 162.005 44.2523L162.425 47.0677L161.195 47.5132L157.03 49.0059C157.08 48.8543 158.605 45.0376 158.595 44.8172C158.585 44.5967 158.535 44.142 158.81 44.0226C159.085 43.9032 159.525 41.6757 159.655 41.3771C159.785 41.0786 159.755 40.9959 159.68 40.5872C159.605 40.1784 159.54 39.9258 159.54 39.9258Z" fill="#72594B"/>
<path d="M152.59 47.1733C153.06 47.6188 154.115 48.6155 155.67 48.565C157.385 48.5099 159.005 47.2055 159.06 46.0664C159.085 45.5566 158.795 45.203 158.925 44.3028C158.99 43.8711 159.16 43.2556 159.416 43.2372C159.681 43.2189 159.861 43.8435 160.041 43.8113C160.221 43.7792 160.206 43.0949 160.206 42.7045C160.206 40.9821 160.601 40.8857 160.441 40.2059C160.141 38.897 158.58 38.1989 158.385 38.1162C156.45 37.2757 154.47 38.2448 154.145 38.401C151.775 39.5584 150.69 42.2681 151.11 44.4681C151.185 44.8356 151.445 46.094 152.59 47.1733Z" fill="#253858"/>
<path d="M148.865 43.3291C149.22 43.6644 150.01 44.413 151.18 44.3763C152.465 44.3349 153.685 43.3566 153.73 42.4978C153.75 42.112 153.53 41.8502 153.63 41.175C153.68 40.8489 153.805 40.3896 154 40.3759C154.2 40.3621 154.335 40.8306 154.47 40.8076C154.605 40.78 154.595 40.2702 154.595 39.9763C154.595 38.6811 154.89 38.6122 154.775 38.0978C154.55 37.1149 153.38 36.5913 153.235 36.527C151.78 35.8978 150.29 36.6235 150.05 36.7429C148.269 37.611 147.454 39.6456 147.769 41.299C147.809 41.57 148.004 42.5161 148.865 43.3291Z" fill="#253858"/>
<path d="M152.05 64.7502V65.8939C152.05 67.0834 152.44 68.2454 153.17 69.2283C153.875 70.179 154.87 70.923 156.03 71.364C156.91 71.5155 157.785 71.6671 158.665 71.8186C159.42 72.1723 161.215 72.898 163.601 72.751C165.871 72.6086 167.486 71.7452 168.191 71.3134C169.516 70.1101 170.936 68.6817 172.366 67.0053C173.831 65.283 175.026 63.625 175.991 62.1185C176.631 61.1586 177.271 60.1987 177.911 59.2434C179.307 57.5027 179.992 55.9136 180.347 54.8067C180.957 52.9236 180.642 52.4092 180.472 52.2117C179.672 51.2518 177.546 51.6973 177.166 51.7662C175.851 52.0096 174.996 52.671 174.631 52.9879L160.715 65.4667L152.05 64.7502Z" fill="url(#paint4_linear)"/>
<path d="M191.627 45.5199C191.892 45.3959 192.097 45.3545 192.157 45.3362C192.437 45.2581 192.642 45.2259 192.857 45.1938C192.857 45.1938 193.262 45.1295 194.182 44.9687C194.407 44.9274 194.737 44.8677 195.137 44.785C195.152 44.8677 195.162 44.9871 195.102 45.1065C195.037 45.2351 194.922 45.2902 194.727 45.3867C194.482 45.5061 193.977 45.7587 193.637 45.9516C193.547 46.0021 193.477 46.0435 193.432 46.071C193.447 46.117 193.467 46.195 193.497 46.2869C193.627 46.6957 193.677 46.7783 193.697 46.9758C193.712 47.132 193.707 47.2376 193.652 47.3708C193.602 47.4948 193.492 47.6096 193.352 47.6372C193.292 47.651 193.222 47.651 193.177 47.6877C193.107 47.7474 193.147 47.8531 193.137 47.9403C193.122 48.0781 192.957 48.1883 192.807 48.1516C192.797 48.1929 192.747 48.3583 192.562 48.4685C192.357 48.5925 192.137 48.5512 192.102 48.542C191.957 48.3261 191.817 48.1103 191.672 47.8944C191.567 47.9633 191.467 48.0322 191.362 48.1011C191.292 48.17 191.172 48.2618 190.997 48.3399C190.912 48.3767 190.712 48.4593 190.452 48.4456C190.362 48.441 190.082 48.4272 189.852 48.2389C189.612 48.0414 189.557 47.7796 189.537 47.5775C189.517 47.3341 189.562 47.0861 189.612 46.8472C189.647 46.6635 189.687 46.5808 189.852 46.489C190.052 46.3788 190.237 46.2548 190.432 46.1399C190.822 45.9241 191.217 45.7128 191.627 45.5199Z" fill="#72594B"/>
<path d="M190.107 46.3788C189.067 46.6635 188.012 46.9437 186.937 47.2147C183.642 48.046 180.437 48.7395 177.347 49.3136C174.901 49.4882 172.311 49.5984 169.586 49.6259C167.731 49.6443 165.936 49.6213 164.211 49.5616C162.276 49.2723 160.635 49.2218 159.425 49.2401C159.425 49.2401 155.69 49.2769 153 50.2184C152.985 50.223 152.97 50.2276 152.95 50.2368C151.27 50.8293 150.375 52.5011 150.805 54.1086C151.065 55.0869 151.26 55.9687 151.405 56.7311C151.66 58.063 151.935 59.5052 151.975 61.4342C152.005 62.8672 151.905 64.1532 151.755 65.2417C153.27 65.5265 154.13 65.7194 155.2 65.8801C156.44 66.0684 157.245 66.174 158.12 66.197C159.66 66.2338 162.696 66.3118 163.986 64.7594C164.851 63.7215 164.081 62.9866 164.986 60.0196C165.191 59.3444 165.366 58.876 165.781 58.357C166.141 57.9069 166.421 57.5992 166.476 57.5395C166.736 57.2547 166.811 56.5474 166.021 54.7148C170.281 54.7608 173.616 54.228 175.856 53.732C177.422 53.3875 178.677 53.0109 178.922 52.9328C181.682 52.0969 182.992 51.3758 186.227 50.0898C187.242 49.6856 188.732 49.1115 190.587 48.4685C190.442 47.775 190.277 47.0769 190.107 46.3788Z" fill="url(#paint5_linear)"/>
<path d="M182.512 58.4213C183.722 58.3983 185.732 58.0079 186.362 57.9666C186.832 57.9344 187.497 58.2376 188.292 57.9528C188.677 57.0296 188.322 56.2443 188.397 55.6748C188.397 55.6748 188.817 53.4059 188.767 52.2531C188.752 51.8902 188.427 51.6055 188.032 51.6055C187.707 51.6055 187.417 51.803 187.327 52.0877L186.897 53.4197C186.702 54.0213 185.877 54.77 185.242 54.5403C184.297 54.1913 183.212 53.4105 182.262 53.0614C182.547 53.6217 183.182 54.5771 183.247 55.8033C183.272 56.3683 182.102 58.0033 182.512 58.4213Z" fill="#505F79"/>
</g>
<defs>
<linearGradient id="paint0_linear" x1="139.27" y1="85.2393" x2="159.364" y2="46.5289" gradientUnits="userSpaceOnUse">
<stop stop-color="#C1C7D0" stop-opacity="0"/>
<stop offset="1" stop-color="#C1C7D0"/>
</linearGradient>
<linearGradient id="paint1_linear" x1="88.5042" y1="80.7523" x2="103.149" y2="50.7903" gradientUnits="userSpaceOnUse">
<stop offset="0.2186" stop-color="#C1C7D0" stop-opacity="0"/>
<stop offset="1" stop-color="#C1C7D0"/>
</linearGradient>
<linearGradient id="paint2_linear" x1="113.355" y1="40.3731" x2="124.979" y2="36.8208" gradientUnits="userSpaceOnUse">
<stop offset="0.3128" stop-color="#0065FF"/>
<stop offset="0.4661" stop-color="#0468FF"/>
<stop offset="0.6266" stop-color="#1171FF"/>
<stop offset="0.7904" stop-color="#267FFF"/>
<stop offset="0.9555" stop-color="#4394FF"/>
<stop offset="1" stop-color="#4C9AFF"/>
</linearGradient>
<linearGradient id="paint3_linear" x1="151.515" y1="55.2703" x2="143.14" y2="69.454" gradientUnits="userSpaceOnUse">
<stop offset="0.1294" stop-color="#FF5630"/>
<stop offset="0.7121" stop-color="#DE350B"/>
</linearGradient>
<linearGradient id="paint4_linear" x1="151.523" y1="75.258" x2="171.024" y2="55.8394" gradientUnits="userSpaceOnUse">
<stop offset="0.4218" stop-color="#DE350B"/>
<stop offset="0.5743" stop-color="#EC5029"/>
<stop offset="0.7268" stop-color="#F76440"/>
<stop offset="0.8717" stop-color="#FD704D"/>
<stop offset="1" stop-color="#FF7452"/>
</linearGradient>
<linearGradient id="paint5_linear" x1="150.702" y1="56.2958" x2="190.607" y2="56.2958" gradientUnits="userSpaceOnUse">
<stop offset="0.2616" stop-color="#FF5630"/>
<stop offset="0.4505" stop-color="#FF6F4D"/>
<stop offset="0.6402" stop-color="#FF8062"/>
<stop offset="0.8256" stop-color="#FF8B6F"/>
<stop offset="1" stop-color="#FF8F73"/>
</linearGradient>
<clipPath id="clip0">
<rect width="235" height="166" fill="white"/>
</clipPath>
</defs>
</svg>
